<svg width="219" height="61" viewBox="0 0 219 61" fill="none" xmlns="http://www.w3.org/2000/svg">
<path d="M7.62 36.27C6.22 36.27 5.05 35.97 4.11 35.37C3.19 34.77 2.49 33.94 2.01 32.88C1.53 31.82 1.25 30.59 1.17 29.19L4.17 28.38C4.23 29.24 4.36 30.07 4.56 30.87C4.78 31.67 5.13 32.33 5.61 32.85C6.09 33.35 6.76 33.6 7.62 33.6C8.5 33.6 9.16 33.36 9.6 32.88C10.06 32.38 10.29 31.67 10.29 30.75C10.29 29.65 10.04 28.77 9.54 28.11C9.04 27.43 8.41 26.75 7.65 26.07L3.57 22.47C2.77 21.77 2.18 21.01 1.8 20.19C1.42 19.35 1.23 18.32 1.23 17.1C1.23 15.32 1.74 13.94 2.76 12.96C3.78 11.98 5.17 11.49 6.93 11.49C7.89 11.49 8.73 11.62 9.45 11.88C10.19 12.12 10.8 12.5 11.28 13.02C11.78 13.54 12.17 14.2 12.45 15C12.75 15.78 12.95 16.7 13.05 17.76L10.17 18.54C10.11 17.74 9.99 17.01 9.81 16.35C9.63 15.67 9.31 15.13 8.85 14.73C8.41 14.31 7.77 14.1 6.93 14.1C6.09 14.1 5.43 14.33 4.95 14.79C4.49 15.23 4.26 15.89 4.26 16.77C4.26 17.51 4.38 18.12 4.62 18.6C4.88 19.08 5.29 19.57 5.85 20.07L9.96 23.67C10.88 24.47 11.69 25.43 12.39 26.55C13.09 27.65 13.44 28.96 13.44 30.48C13.44 31.68 13.19 32.72 12.69 33.6C12.19 34.46 11.5 35.12 10.62 35.58C9.76 36.04 8.76 36.27 7.62 36.27ZM15.7997 36V18.66H18.7697V20.31C19.3497 19.65 19.9897 19.16 20.6897 18.84C21.3897 18.52 22.1097 18.36 22.8497 18.36C23.4897 18.36 24.0597 18.52 24.5597 18.84C25.0797 19.16 25.4497 19.73 25.6697 20.55C26.2897 19.79 26.9597 19.24 27.6797 18.9C28.4197 18.54 29.1897 18.36 29.9897 18.36C30.5497 18.36 31.0597 18.5 31.5197 18.78C31.9797 19.04 32.3497 19.47 32.6297 20.07C32.9097 20.65 33.0497 21.42 33.0497 22.38V36H30.1097V22.59C30.1097 21.75 29.9697 21.19 29.6897 20.91C29.4297 20.61 29.0697 20.46 28.6097 20.46C28.1697 20.46 27.7097 20.59 27.2297 20.85C26.7497 21.09 26.3097 21.43 25.9097 21.87C25.9097 21.95 25.9097 22.03 25.9097 22.11C25.9097 22.19 25.9097 22.28 25.9097 22.38V36H22.9697V22.59C22.9697 21.75 22.8297 21.19 22.5497 20.91C22.2897 20.61 21.9297 20.46 21.4697 20.46C21.0297 20.46 20.5697 20.59 20.0897 20.85C19.6297 21.09 19.1897 21.43 18.7697 21.87V36H15.7997ZM39.3103 36.24C38.6303 36.24 38.0303 36.05 37.5103 35.67C36.9903 35.27 36.5803 34.77 36.2803 34.17C35.9803 33.55 35.8303 32.9 35.8303 32.22C35.8303 31.14 36.0103 30.23 36.3703 29.49C36.7303 28.75 37.2203 28.13 37.8403 27.63C38.4803 27.11 39.2103 26.66 40.0303 26.28C40.8703 25.9 41.7503 25.53 42.6703 25.17V23.94C42.6703 23.24 42.6303 22.66 42.5503 22.2C42.4703 21.74 42.3003 21.4 42.0403 21.18C41.8003 20.94 41.4303 20.82 40.9303 20.82C40.4903 20.82 40.1303 20.92 39.8503 21.12C39.5903 21.32 39.4003 21.61 39.2803 21.99C39.1603 22.35 39.1003 22.78 39.1003 23.28V24.15L35.9203 24.03C35.9603 22.11 36.4003 20.7 37.2403 19.8C38.0803 18.88 39.3803 18.42 41.1403 18.42C42.8603 18.42 44.0803 18.89 44.8003 19.83C45.5203 20.77 45.8803 22.13 45.8803 23.91V31.83C45.8803 32.37 45.8903 32.89 45.9103 33.39C45.9503 33.89 45.9903 34.36 46.0303 34.8C46.0903 35.22 46.1403 35.62 46.1803 36H43.2403C43.1803 35.68 43.1003 35.28 43.0003 34.8C42.9203 34.3 42.8603 33.85 42.8203 33.45C42.6203 34.13 42.2303 34.77 41.6503 35.37C41.0903 35.95 40.3103 36.24 39.3103 36.24ZM40.5703 33.48C40.8903 33.48 41.1903 33.39 41.4703 33.21C41.7503 33.03 42.0003 32.83 42.2203 32.61C42.4403 32.37 42.5903 32.18 42.6703 32.04V27.12C42.1703 27.4 41.7003 27.68 41.2603 27.96C40.8203 28.24 40.4303 28.54 40.0903 28.86C39.7703 29.16 39.5103 29.51 39.3103 29.91C39.1303 30.29 39.0403 30.73 39.0403 31.23C39.0403 31.93 39.1703 32.48 39.4303 32.88C39.6903 33.28 40.0703 33.48 40.5703 33.48ZM49.0538 36V18.66H52.2638V21.12C52.9038 20.06 53.5438 19.35 54.1838 18.99C54.8238 18.63 55.4638 18.45 56.1038 18.45C56.1838 18.45 56.2538 18.45 56.3138 18.45C56.3938 18.45 56.4938 18.46 56.6138 18.48V22.02C56.3738 21.92 56.0938 21.84 55.7738 21.78C55.4738 21.7 55.1638 21.66 54.8438 21.66C54.3438 21.66 53.8838 21.78 53.4638 22.02C53.0638 22.24 52.6638 22.68 52.2638 23.34V36H49.0538ZM63.2224 36.24C62.3224 36.24 61.5924 36.07 61.0324 35.73C60.4924 35.39 60.0924 34.91 59.8324 34.29C59.5924 33.67 59.4724 32.94 59.4724 32.1V20.79H57.6424V18.66H59.4724V13.59H62.6824V18.66H65.4724V20.79H62.6824V31.89C62.6824 32.57 62.7924 33.06 63.0124 33.36C63.2324 33.64 63.6524 33.78 64.2724 33.78C64.4324 33.78 64.6124 33.77 64.8124 33.75C65.0324 33.73 65.2424 33.71 65.4424 33.69V36.06C65.0424 36.12 64.6724 36.16 64.3324 36.18C63.9924 36.22 63.6224 36.24 63.2224 36.24ZM77.6264 36V14.22H73.5164V11.7H85.0064V14.22H81.0164V36H77.6264ZM91.5274 36.24C90.1674 36.24 89.1174 35.98 88.3774 35.46C87.6374 34.92 87.1174 34.14 86.8174 33.12C86.5374 32.08 86.3974 30.81 86.3974 29.31V25.35C86.3974 23.81 86.5474 22.53 86.8474 21.51C87.1474 20.49 87.6674 19.72 88.4074 19.2C89.1674 18.68 90.2074 18.42 91.5274 18.42C92.9874 18.42 94.0574 18.72 94.7374 19.32C95.4374 19.92 95.8974 20.79 96.1174 21.93C96.3374 23.05 96.4474 24.4 96.4474 25.98V27.39H89.6074V30.87C89.6074 31.57 89.6674 32.14 89.7874 32.58C89.9274 33.02 90.1374 33.35 90.4174 33.57C90.7174 33.77 91.0974 33.87 91.5574 33.87C92.0374 33.87 92.3974 33.76 92.6374 33.54C92.8974 33.3 93.0674 32.97 93.1474 32.55C93.2474 32.11 93.2974 31.6 93.2974 31.02V29.97H96.4174V30.63C96.4174 32.37 96.0474 33.74 95.3074 34.74C94.5674 35.74 93.3074 36.24 91.5274 36.24ZM89.6074 25.65H93.2974V24.09C93.2974 23.37 93.2574 22.77 93.1774 22.29C93.0974 21.79 92.9274 21.42 92.6674 21.18C92.4274 20.92 92.0374 20.79 91.4974 20.79C90.9774 20.79 90.5774 20.91 90.2974 21.15C90.0374 21.39 89.8574 21.8 89.7574 22.38C89.6574 22.94 89.6074 23.72 89.6074 24.72V25.65ZM104.094 36.24C102.674 36.24 101.594 35.96 100.854 35.4C100.134 34.82 99.6444 34.01 99.3844 32.97C99.1444 31.93 99.0244 30.72 99.0244 29.34V25.35C99.0244 23.89 99.1544 22.65 99.4144 21.63C99.6744 20.59 100.164 19.8 100.884 19.26C101.624 18.7 102.694 18.42 104.094 18.42C105.354 18.42 106.324 18.63 107.004 19.05C107.704 19.45 108.184 20.06 108.444 20.88C108.704 21.68 108.834 22.68 108.834 23.88V24.9H105.924V23.85C105.924 23.09 105.874 22.49 105.774 22.05C105.674 21.61 105.494 21.29 105.234 21.09C104.974 20.89 104.604 20.79 104.124 20.79C103.604 20.79 103.204 20.91 102.924 21.15C102.644 21.39 102.454 21.8 102.354 22.38C102.274 22.94 102.234 23.71 102.234 24.69V30.15C102.234 31.63 102.374 32.62 102.654 33.12C102.934 33.62 103.434 33.87 104.154 33.87C104.694 33.87 105.084 33.75 105.324 33.51C105.584 33.25 105.744 32.89 105.804 32.43C105.884 31.97 105.924 31.45 105.924 30.87V29.46H108.834V30.66C108.834 31.82 108.694 32.82 108.414 33.66C108.154 34.5 107.674 35.14 106.974 35.58C106.294 36.02 105.334 36.24 104.094 36.24ZM111.778 36V11.7H114.988V20.46C115.568 19.9 116.218 19.42 116.938 19.02C117.658 18.62 118.458 18.42 119.338 18.42C120.018 18.42 120.538 18.6 120.898 18.96C121.278 19.32 121.538 19.77 121.678 20.31C121.838 20.85 121.918 21.4 121.918 21.96V36H118.708V22.89C118.708 22.27 118.618 21.79 118.438 21.45C118.258 21.11 117.888 20.94 117.328 20.94C116.948 20.94 116.548 21.05 116.128 21.27C115.728 21.49 115.348 21.76 114.988 22.08V36H111.778ZM125.048 36V18.66H128.258V20.37C128.838 19.83 129.478 19.37 130.178 18.99C130.878 18.61 131.648 18.42 132.488 18.42C133.188 18.42 133.718 18.6 134.078 18.96C134.458 19.32 134.718 19.77 134.858 20.31C135.018 20.85 135.098 21.4 135.098 21.96V36H131.888V22.89C131.888 22.27 131.798 21.79 131.618 21.45C131.438 21.11 131.068 20.94 130.508 20.94C130.148 20.94 129.768 21.05 129.368 21.27C128.988 21.47 128.618 21.72 128.258 22.02V36H125.048ZM143.001 36.24C141.721 36.24 140.711 35.98 139.971 35.46C139.231 34.94 138.701 34.2 138.381 33.24C138.081 32.28 137.931 31.15 137.931 29.85V24.81C137.931 23.51 138.081 22.38 138.381 21.42C138.701 20.46 139.231 19.72 139.971 19.2C140.711 18.68 141.721 18.42 143.001 18.42C144.281 18.42 145.281 18.68 146.001 19.2C146.741 19.72 147.261 20.46 147.561 21.42C147.881 22.38 148.041 23.51 148.041 24.81V29.85C148.041 31.15 147.881 32.28 147.561 33.24C147.261 34.2 146.741 34.94 146.001 35.46C145.281 35.98 144.281 36.24 143.001 36.24ZM143.001 33.87C143.621 33.87 144.051 33.69 144.291 33.33C144.551 32.97 144.701 32.5 144.741 31.92C144.801 31.32 144.831 30.7 144.831 30.06V24.63C144.831 23.97 144.801 23.35 144.741 22.77C144.701 22.19 144.551 21.72 144.291 21.36C144.051 20.98 143.621 20.79 143.001 20.79C142.381 20.79 141.941 20.98 141.681 21.36C141.421 21.72 141.261 22.19 141.201 22.77C141.161 23.35 141.141 23.97 141.141 24.63V30.06C141.141 30.7 141.161 31.32 141.201 31.92C141.261 32.5 141.421 32.97 141.681 33.33C141.941 33.69 142.381 33.87 143.001 33.87ZM151.275 36V11.7H154.485V36H151.275ZM162.601 36.24C161.321 36.24 160.311 35.98 159.571 35.46C158.831 34.94 158.301 34.2 157.981 33.24C157.681 32.28 157.531 31.15 157.531 29.85V24.81C157.531 23.51 157.681 22.38 157.981 21.42C158.301 20.46 158.831 19.72 159.571 19.2C160.311 18.68 161.321 18.42 162.601 18.42C163.881 18.42 164.881 18.68 165.601 19.2C166.341 19.72 166.861 20.46 167.161 21.42C167.481 22.38 167.641 23.51 167.641 24.81V29.85C167.641 31.15 167.481 32.28 167.161 33.24C166.861 34.2 166.341 34.94 165.601 35.46C164.881 35.98 163.881 36.24 162.601 36.24ZM162.601 33.87C163.221 33.87 163.651 33.69 163.891 33.33C164.151 32.97 164.301 32.5 164.341 31.92C164.401 31.32 164.431 30.7 164.431 30.06V24.63C164.431 23.97 164.401 23.35 164.341 22.77C164.301 22.19 164.151 21.72 163.891 21.36C163.651 20.98 163.221 20.79 162.601 20.79C161.981 20.79 161.541 20.98 161.281 21.36C161.021 21.72 160.861 22.19 160.801 22.77C160.761 23.35 160.741 23.97 160.741 24.63V30.06C160.741 30.7 160.761 31.32 160.801 31.92C160.861 32.5 161.021 32.97 161.281 33.33C161.541 33.69 161.981 33.87 162.601 33.87ZM175.075 41.37C174.035 41.37 173.095 41.26 172.255 41.04C171.415 40.82 170.755 40.47 170.275 39.99C169.795 39.51 169.555 38.88 169.555 38.1C169.555 37.54 169.675 37.05 169.915 36.63C170.155 36.21 170.465 35.85 170.845 35.55C171.225 35.23 171.625 34.97 172.045 34.77C171.485 34.61 171.065 34.36 170.785 34.02C170.505 33.66 170.365 33.29 170.365 32.91C170.365 32.27 170.535 31.72 170.875 31.26C171.215 30.8 171.685 30.3 172.285 29.76C171.625 29.26 171.125 28.62 170.785 27.84C170.445 27.06 170.275 25.98 170.275 24.6C170.275 23.24 170.455 22.11 170.815 21.21C171.195 20.29 171.745 19.6 172.465 19.14C173.205 18.66 174.105 18.42 175.165 18.42C176.105 18.42 176.855 18.58 177.415 18.9C177.995 19.22 178.435 19.7 178.735 20.34C178.835 20.18 179.105 19.91 179.545 19.53C179.985 19.13 180.495 18.8 181.075 18.54L181.555 18.33L182.365 20.4C182.105 20.44 181.755 20.54 181.315 20.7C180.895 20.84 180.495 20.99 180.115 21.15C179.755 21.29 179.525 21.41 179.425 21.51C179.565 21.85 179.685 22.34 179.785 22.98C179.905 23.62 179.965 24.19 179.965 24.69C179.965 25.87 179.815 26.91 179.515 27.81C179.215 28.71 178.715 29.42 178.015 29.94C177.335 30.44 176.385 30.69 175.165 30.69C174.905 30.69 174.625 30.67 174.325 30.63C174.025 30.59 173.755 30.54 173.515 30.48C173.395 30.66 173.265 30.87 173.125 31.11C173.005 31.35 172.945 31.58 172.945 31.8C172.945 32.02 173.055 32.2 173.275 32.34C173.515 32.46 173.885 32.54 174.385 32.58L177.085 32.82C178.445 32.94 179.455 33.35 180.115 34.05C180.775 34.75 181.105 35.75 181.105 37.05C181.105 37.99 180.885 38.78 180.445 39.42C180.005 40.08 179.335 40.57 178.435 40.89C177.555 41.21 176.435 41.37 175.075 41.37ZM175.315 38.85C176.455 38.85 177.295 38.71 177.835 38.43C178.375 38.17 178.645 37.74 178.645 37.14C178.645 36.78 178.575 36.48 178.435 36.24C178.315 36 178.085 35.81 177.745 35.67C177.405 35.53 176.915 35.43 176.275 35.37L173.545 35.13C173.325 35.35 173.115 35.57 172.915 35.79C172.715 36.01 172.555 36.24 172.435 36.48C172.315 36.74 172.255 37.01 172.255 37.29C172.255 37.81 172.475 38.2 172.915 38.46C173.355 38.72 174.155 38.85 175.315 38.85ZM175.165 28.44C175.625 28.44 175.985 28.36 176.245 28.2C176.525 28.02 176.735 27.77 176.875 27.45C177.015 27.11 177.105 26.7 177.145 26.22C177.205 25.74 177.235 25.2 177.235 24.6C177.235 24 177.205 23.46 177.145 22.98C177.105 22.48 177.015 22.06 176.875 21.72C176.755 21.36 176.555 21.09 176.275 20.91C176.015 20.73 175.655 20.64 175.195 20.64C174.755 20.64 174.385 20.73 174.085 20.91C173.805 21.09 173.595 21.35 173.455 21.69C173.315 22.01 173.215 22.42 173.155 22.92C173.095 23.4 173.065 23.96 173.065 24.6C173.065 25.14 173.085 25.65 173.125 26.13C173.185 26.59 173.285 26.99 173.425 27.33C173.585 27.67 173.805 27.94 174.085 28.14C174.365 28.34 174.725 28.44 175.165 28.44ZM183.822 36V18.66H187.032V36H183.822ZM183.822 16.08V12.72H187.032V16.08H183.822ZM195.268 36.24C193.908 36.24 192.858 35.98 192.118 35.46C191.378 34.92 190.858 34.14 190.558 33.12C190.278 32.08 190.138 30.81 190.138 29.31V25.35C190.138 23.81 190.288 22.53 190.588 21.51C190.888 20.49 191.408 19.72 192.148 19.2C192.908 18.68 193.948 18.42 195.268 18.42C196.728 18.42 197.798 18.72 198.478 19.32C199.178 19.92 199.638 20.79 199.858 21.93C200.078 23.05 200.188 24.4 200.188 25.98V27.39H193.348V30.87C193.348 31.57 193.408 32.14 193.528 32.58C193.668 33.02 193.878 33.35 194.158 33.57C194.458 33.77 194.838 33.87 195.298 33.87C195.778 33.87 196.138 33.76 196.378 33.54C196.638 33.3 196.808 32.97 196.888 32.55C196.988 32.11 197.038 31.6 197.038 31.02V29.97H200.158V30.63C200.158 32.37 199.788 33.74 199.048 34.74C198.308 35.74 197.048 36.24 195.268 36.24ZM193.348 25.65H197.038V24.09C197.038 23.37 196.998 22.77 196.918 22.29C196.838 21.79 196.668 21.42 196.408 21.18C196.168 20.92 195.778 20.79 195.238 20.79C194.718 20.79 194.318 20.91 194.038 21.15C193.778 21.39 193.598 21.8 193.498 22.38C193.398 22.94 193.348 23.72 193.348 24.72V25.65ZM207.115 36.24C205.695 36.24 204.555 35.8 203.695 34.92C202.835 34.02 202.345 32.84 202.225 31.38L204.895 30.57C205.055 31.67 205.325 32.5 205.705 33.06C206.085 33.6 206.645 33.87 207.385 33.87C207.965 33.87 208.405 33.71 208.705 33.39C209.005 33.05 209.155 32.6 209.155 32.04C209.155 31.54 209.045 31.09 208.825 30.69C208.605 30.29 208.245 29.88 207.745 29.46L204.775 26.91C204.175 26.39 203.665 25.81 203.245 25.17C202.845 24.53 202.645 23.7 202.645 22.68C202.645 21.76 202.825 20.99 203.185 20.37C203.565 19.73 204.085 19.25 204.745 18.93C205.425 18.59 206.215 18.42 207.115 18.42C208.495 18.42 209.545 18.87 210.265 19.77C211.005 20.65 211.425 21.72 211.525 22.98L209.365 23.79C209.285 23.19 209.165 22.67 209.005 22.23C208.845 21.77 208.625 21.42 208.345 21.18C208.065 20.92 207.695 20.79 207.235 20.79C206.715 20.79 206.295 20.97 205.975 21.33C205.675 21.67 205.525 22.08 205.525 22.56C205.525 22.86 205.585 23.16 205.705 23.46C205.845 23.74 206.075 24.02 206.395 24.3L209.455 27.12C209.875 27.5 210.265 27.91 210.625 28.35C211.005 28.79 211.315 29.29 211.555 29.85C211.795 30.41 211.915 31.06 211.915 31.8C211.915 32.78 211.715 33.6 211.315 34.26C210.915 34.92 210.355 35.42 209.635 35.76C208.915 36.08 208.075 36.24 207.115 36.24Z" fill="black"/>
<path d="M98.54 48.09C98.0733 48.09 97.6833 47.99 97.37 47.79C97.0633 47.59 96.83 47.3133 96.67 46.96C96.51 46.6067 96.4167 46.1967 96.39 45.73L97.39 45.46C97.41 45.7467 97.4533 46.0233 97.52 46.29C97.5933 46.5567 97.71 46.7767 97.87 46.95C98.03 47.1167 98.2533 47.2 98.54 47.2C98.8333 47.2 99.0533 47.12 99.2 46.96C99.3533 46.7933 99.43 46.5567 99.43 46.25C99.43 45.8833 99.3467 45.59 99.18 45.37C99.0133 45.1433 98.8033 44.9167 98.55 44.69L97.19 43.49C96.9233 43.2567 96.7267 43.0033 96.6 42.73C96.4733 42.45 96.41 42.1067 96.41 41.7C96.41 41.1067 96.58 40.6467 96.92 40.32C97.26 39.9933 97.7233 39.83 98.31 39.83C98.63 39.83 98.91 39.8733 99.15 39.96C99.3967 40.04 99.6 40.1667 99.76 40.34C99.9267 40.5133 100.057 40.7333 100.15 41C100.25 41.26 100.317 41.5667 100.35 41.92L99.39 42.18C99.37 41.9133 99.33 41.67 99.27 41.45C99.21 41.2233 99.1033 41.0433 98.95 40.91C98.8033 40.77 98.59 40.7 98.31 40.7C98.03 40.7 97.81 40.7767 97.65 40.93C97.4967 41.0767 97.42 41.2967 97.42 41.59C97.42 41.8367 97.46 42.04 97.54 42.2C97.6267 42.36 97.7633 42.5233 97.95 42.69L99.32 43.89C99.6267 44.1567 99.8967 44.4767 100.13 44.85C100.363 45.2167 100.48 45.6533 100.48 46.16C100.48 46.56 100.397 46.9067 100.23 47.2C100.063 47.4867 99.8333 47.7067 99.54 47.86C99.2533 48.0133 98.92 48.09 98.54 48.09ZM101.337 48V42.22H102.407V48H101.337ZM101.337 41.36V40.24H102.407V41.36H101.337ZM105.622 48.08C105.415 48.08 105.228 48.03 105.062 47.93C104.902 47.8233 104.762 47.7067 104.642 47.58V48H103.572V39.9H104.642V42.68C104.768 42.5333 104.918 42.4067 105.092 42.3C105.272 42.1933 105.485 42.14 105.732 42.14C106.032 42.14 106.268 42.22 106.442 42.38C106.622 42.5333 106.755 42.73 106.842 42.97C106.928 43.2033 106.985 43.4433 107.012 43.69C107.038 43.93 107.052 44.1367 107.052 44.31V45.71C107.052 46.1167 107.012 46.5033 106.932 46.87C106.852 47.23 106.708 47.5233 106.502 47.75C106.295 47.97 106.002 48.08 105.622 48.08ZM105.402 47.24C105.588 47.24 105.722 47.1733 105.802 47.04C105.882 46.9 105.932 46.7133 105.952 46.48C105.972 46.2467 105.982 45.99 105.982 45.71V44.31C105.982 44.07 105.968 43.85 105.942 43.65C105.915 43.4433 105.858 43.28 105.772 43.16C105.685 43.04 105.548 42.98 105.362 42.98C105.222 42.98 105.088 43.01 104.962 43.07C104.842 43.13 104.735 43.1967 104.642 43.27V46.98C104.735 47.0533 104.845 47.1167 104.972 47.17C105.105 47.2167 105.248 47.24 105.402 47.24ZM109.624 48.08C109.171 48.08 108.821 47.9933 108.574 47.82C108.328 47.64 108.154 47.38 108.054 47.04C107.961 46.6933 107.914 46.27 107.914 45.77V44.45C107.914 43.9367 107.964 43.51 108.064 43.17C108.164 42.83 108.338 42.5733 108.584 42.4C108.838 42.2267 109.184 42.14 109.624 42.14C110.111 42.14 110.468 42.24 110.694 42.44C110.928 42.64 111.081 42.93 111.154 43.31C111.228 43.6833 111.264 44.1333 111.264 44.66V45.13H108.984V46.29C108.984 46.5233 109.004 46.7133 109.044 46.86C109.091 47.0067 109.161 47.1167 109.254 47.19C109.354 47.2567 109.481 47.29 109.634 47.29C109.794 47.29 109.914 47.2533 109.994 47.18C110.081 47.1 110.138 46.99 110.164 46.85C110.198 46.7033 110.214 46.5333 110.214 46.34V45.99H111.254V46.21C111.254 46.79 111.131 47.2467 110.884 47.58C110.638 47.9133 110.218 48.08 109.624 48.08ZM108.984 44.55H110.214V44.03C110.214 43.79 110.201 43.59 110.174 43.43C110.148 43.2633 110.091 43.14 110.004 43.06C109.924 42.9733 109.794 42.93 109.614 42.93C109.441 42.93 109.308 42.97 109.214 43.05C109.128 43.13 109.068 43.2667 109.034 43.46C109.001 43.6467 108.984 43.9067 108.984 44.24V44.55ZM112.263 48V42.22H113.333V43.04C113.547 42.6867 113.76 42.45 113.973 42.33C114.187 42.21 114.4 42.15 114.613 42.15C114.64 42.15 114.663 42.15 114.683 42.15C114.71 42.15 114.743 42.1533 114.783 42.16V43.34C114.703 43.3067 114.61 43.28 114.503 43.26C114.403 43.2333 114.3 43.22 114.193 43.22C114.027 43.22 113.873 43.26 113.733 43.34C113.6 43.4133 113.467 43.56 113.333 43.78V48H112.263ZM115.516 48V42.22H116.586V48H115.516ZM115.516 41.36V40.24H116.586V41.36H115.516ZM118.771 48.08C118.545 48.08 118.345 48.0167 118.171 47.89C117.998 47.7567 117.861 47.59 117.761 47.39C117.661 47.1833 117.611 46.9667 117.611 46.74C117.611 46.38 117.671 46.0767 117.791 45.83C117.911 45.5833 118.075 45.3767 118.281 45.21C118.495 45.0367 118.738 44.8867 119.011 44.76C119.291 44.6333 119.585 44.51 119.891 44.39V43.98C119.891 43.7467 119.878 43.5533 119.851 43.4C119.825 43.2467 119.768 43.1333 119.681 43.06C119.601 42.98 119.478 42.94 119.311 42.94C119.165 42.94 119.045 42.9733 118.951 43.04C118.865 43.1067 118.801 43.2033 118.761 43.33C118.721 43.45 118.701 43.5933 118.701 43.76V44.05L117.641 44.01C117.655 43.37 117.801 42.9 118.081 42.6C118.361 42.2933 118.795 42.14 119.381 42.14C119.955 42.14 120.361 42.2967 120.601 42.61C120.841 42.9233 120.961 43.3767 120.961 43.97V46.61C120.961 46.79 120.965 46.9633 120.971 47.13C120.985 47.2967 120.998 47.4533 121.011 47.6C121.031 47.74 121.048 47.8733 121.061 48H120.081C120.061 47.8933 120.035 47.76 120.001 47.6C119.975 47.4333 119.955 47.2833 119.941 47.15C119.875 47.3767 119.745 47.59 119.551 47.79C119.365 47.9833 119.105 48.08 118.771 48.08ZM119.191 47.16C119.298 47.16 119.398 47.13 119.491 47.07C119.585 47.01 119.668 46.9433 119.741 46.87C119.815 46.79 119.865 46.7267 119.891 46.68V45.04C119.725 45.1333 119.568 45.2267 119.421 45.32C119.275 45.4133 119.145 45.5133 119.031 45.62C118.925 45.72 118.838 45.8367 118.771 45.97C118.711 46.0967 118.681 46.2433 118.681 46.41C118.681 46.6433 118.725 46.8267 118.811 46.96C118.898 47.0933 119.025 47.16 119.191 47.16Z" fill="black"/>
</svg>
