<svg width="86" height="31" viewBox="0 0 86 31" fill="none" xmlns="http://www.w3.org/2000/svg">
<path d="M3.83804 14.5504C3.27804 14.5504 2.81004 14.4304 2.43404 14.1904C2.06604 13.9504 1.78604 13.6184 1.59404 13.1944C1.40204 12.7704 1.29004 12.2784 1.25804 11.7184L2.45804 11.3944C2.48204 11.7384 2.53404 12.0704 2.61404 12.3904C2.70204 12.7104 2.84204 12.9744 3.03404 13.1824C3.22604 13.3824 3.49404 13.4824 3.83804 13.4824C4.19004 13.4824 4.45404 13.3864 4.63004 13.1944C4.81404 12.9944 4.90604 12.7104 4.90604 12.3424C4.90604 11.9024 4.80604 11.5504 4.60604 11.2864C4.40604 11.0144 4.15404 10.7424 3.85004 10.4704L2.21804 9.03038C1.89804 8.75038 1.66204 8.44638 1.51004 8.11838C1.35804 7.78238 1.28204 7.37038 1.28204 6.88238C1.28204 6.17038 1.48604 5.61838 1.89404 5.22638C2.30204 4.83438 2.85804 4.63838 3.56204 4.63838C3.94604 4.63838 4.28204 4.69038 4.57004 4.79438C4.86604 4.89038 5.11004 5.04238 5.30204 5.25038C5.50204 5.45838 5.65804 5.72238 5.77004 6.04238C5.89004 6.35438 5.97004 6.72238 6.01004 7.14638L4.85804 7.45838C4.83404 7.13838 4.78604 6.84638 4.71404 6.58238C4.64204 6.31038 4.51404 6.09438 4.33004 5.93438C4.15404 5.76638 3.89804 5.68238 3.56204 5.68238C3.22604 5.68238 2.96204 5.77438 2.77004 5.95838C2.58604 6.13438 2.49404 6.39838 2.49404 6.75038C2.49404 7.04638 2.54204 7.29038 2.63804 7.48238C2.74204 7.67438 2.90604 7.87038 3.13004 8.07038L4.77404 9.51038C5.14204 9.83038 5.46604 10.2144 5.74604 10.6624C6.02604 11.1024 6.16604 11.6264 6.16604 12.2344C6.16604 12.7144 6.06604 13.1304 5.86604 13.4824C5.66604 13.8264 5.39004 14.0904 5.03804 14.2744C4.69404 14.4584 4.29404 14.5504 3.83804 14.5504ZM7.10991 14.4424V7.50638H8.29791V8.16638C8.52991 7.90238 8.78591 7.70638 9.06591 7.57838C9.34591 7.45038 9.63391 7.38638 9.92991 7.38638C10.1859 7.38638 10.4139 7.45038 10.6139 7.57838C10.8219 7.70638 10.9699 7.93438 11.0579 8.26238C11.3059 7.95838 11.5739 7.73838 11.8619 7.60238C12.1579 7.45838 12.4659 7.38638 12.7859 7.38638C13.0099 7.38638 13.2139 7.44238 13.3979 7.55438C13.5819 7.65838 13.7299 7.83038 13.8419 8.07038C13.9539 8.30238 14.0099 8.61038 14.0099 8.99438V14.4424H12.8339V9.07838C12.8339 8.74238 12.7779 8.51838 12.6659 8.40638C12.5619 8.28638 12.4179 8.22638 12.2339 8.22638C12.0579 8.22638 11.8739 8.27838 11.6819 8.38238C11.4899 8.47838 11.3139 8.61438 11.1539 8.79038C11.1539 8.82238 11.1539 8.85438 11.1539 8.88638C11.1539 8.91838 11.1539 8.95438 11.1539 8.99438V14.4424H9.97791V9.07838C9.97791 8.74238 9.92191 8.51838 9.80991 8.40638C9.70591 8.28638 9.56191 8.22638 9.37791 8.22638C9.20191 8.22638 9.01791 8.27838 8.82591 8.38238C8.64191 8.47838 8.46591 8.61438 8.29791 8.79038V14.4424H7.10991ZM16.5142 14.5384C16.2422 14.5384 16.0022 14.4624 15.7942 14.3104C15.5862 14.1504 15.4222 13.9504 15.3022 13.7104C15.1822 13.4624 15.1222 13.2024 15.1222 12.9304C15.1222 12.4984 15.1942 12.1344 15.3382 11.8384C15.4822 11.5424 15.6782 11.2944 15.9262 11.0944C16.1822 10.8864 16.4742 10.7064 16.8022 10.5544C17.1382 10.4024 17.4902 10.2544 17.8582 10.1104V9.61838C17.8582 9.33838 17.8422 9.10638 17.8102 8.92238C17.7782 8.73838 17.7102 8.60238 17.6062 8.51438C17.5102 8.41838 17.3622 8.37038 17.1622 8.37038C16.9862 8.37038 16.8422 8.41038 16.7302 8.49038C16.6262 8.57038 16.5502 8.68638 16.5022 8.83838C16.4542 8.98238 16.4302 9.15438 16.4302 9.35438V9.70238L15.1582 9.65438C15.1742 8.88638 15.3502 8.32238 15.6862 7.96238C16.0222 7.59438 16.5422 7.41038 17.2462 7.41038C17.9342 7.41038 18.4222 7.59838 18.7102 7.97438C18.9982 8.35038 19.1422 8.89438 19.1422 9.60638V12.7744C19.1422 12.9904 19.1462 13.1984 19.1542 13.3984C19.1702 13.5984 19.1862 13.7864 19.2022 13.9624C19.2262 14.1304 19.2462 14.2904 19.2622 14.4424H18.0862C18.0622 14.3144 18.0302 14.1544 17.9902 13.9624C17.9582 13.7624 17.9342 13.5824 17.9182 13.4224C17.8382 13.6944 17.6822 13.9504 17.4502 14.1904C17.2262 14.4224 16.9142 14.5384 16.5142 14.5384ZM17.0182 13.4344C17.1462 13.4344 17.2662 13.3984 17.3782 13.3264C17.4902 13.2544 17.5902 13.1744 17.6782 13.0864C17.7662 12.9904 17.8262 12.9144 17.8582 12.8584V10.8904C17.6582 11.0024 17.4702 11.1144 17.2942 11.2264C17.1182 11.3384 16.9622 11.4584 16.8262 11.5864C16.6982 11.7064 16.5942 11.8464 16.5142 12.0064C16.4422 12.1584 16.4062 12.3344 16.4062 12.5344C16.4062 12.8144 16.4582 13.0344 16.5622 13.1944C16.6662 13.3544 16.8182 13.4344 17.0182 13.4344ZM20.4115 14.4424V7.50638H21.6955V8.49038C21.9515 8.06638 22.2075 7.78238 22.4635 7.63838C22.7195 7.49438 22.9755 7.42238 23.2315 7.42238C23.2635 7.42238 23.2915 7.42238 23.3155 7.42238C23.3475 7.42238 23.3875 7.42638 23.4355 7.43438V8.85038C23.3395 8.81038 23.2275 8.77838 23.0995 8.75438C22.9795 8.72238 22.8555 8.70638 22.7275 8.70638C22.5275 8.70638 22.3435 8.75438 22.1755 8.85038C22.0155 8.93838 21.8555 9.11438 21.6955 9.37838V14.4424H20.4115ZM26.079 14.5384C25.719 14.5384 25.427 14.4704 25.203 14.3344C24.987 14.1984 24.827 14.0064 24.723 13.7584C24.627 13.5104 24.579 13.2184 24.579 12.8824V8.35838H23.847V7.50638H24.579V5.47838H25.863V7.50638H26.979V8.35838H25.863V12.7984C25.863 13.0704 25.907 13.2664 25.995 13.3864C26.083 13.4984 26.251 13.5544 26.499 13.5544C26.563 13.5544 26.635 13.5504 26.715 13.5424C26.803 13.5344 26.887 13.5264 26.967 13.5184V14.4664C26.807 14.4904 26.659 14.5064 26.523 14.5144C26.387 14.5304 26.239 14.5384 26.079 14.5384ZM31.8406 14.4424V5.73038H30.1966V4.72238H34.7926V5.73038H33.1966V14.4424H31.8406ZM37.401 14.5384C36.857 14.5384 36.437 14.4344 36.141 14.2264C35.845 14.0104 35.637 13.6984 35.517 13.2904C35.405 12.8744 35.349 12.3664 35.349 11.7664V10.1824C35.349 9.56638 35.409 9.05438 35.529 8.64638C35.649 8.23838 35.857 7.93038 36.153 7.72238C36.457 7.51438 36.873 7.41038 37.401 7.41038C37.985 7.41038 38.413 7.53038 38.685 7.77038C38.965 8.01038 39.149 8.35838 39.237 8.81438C39.325 9.26238 39.369 9.80238 39.369 10.4344V10.9984H36.633V12.3904C36.633 12.6704 36.657 12.8984 36.705 13.0744C36.761 13.2504 36.845 13.3824 36.957 13.4704C37.077 13.5504 37.229 13.5904 37.413 13.5904C37.605 13.5904 37.749 13.5464 37.845 13.4584C37.949 13.3624 38.017 13.2304 38.049 13.0624C38.089 12.8864 38.109 12.6824 38.109 12.4504V12.0304H39.357V12.2944C39.357 12.9904 39.209 13.5384 38.913 13.9384C38.617 14.3384 38.113 14.5384 37.401 14.5384ZM36.633 10.3024H38.109V9.67838C38.109 9.39038 38.093 9.15038 38.061 8.95838C38.029 8.75838 37.961 8.61038 37.857 8.51438C37.761 8.41038 37.605 8.35838 37.389 8.35838C37.181 8.35838 37.021 8.40638 36.909 8.50238C36.805 8.59838 36.733 8.76238 36.693 8.99438C36.653 9.21838 36.633 9.53038 36.633 9.93038V10.3024ZM42.4278 14.5384C41.8598 14.5384 41.4278 14.4264 41.1318 14.2024C40.8438 13.9704 40.6478 13.6464 40.5438 13.2304C40.4478 12.8144 40.3998 12.3304 40.3998 11.7784V10.1824C40.3998 9.59838 40.4518 9.10238 40.5558 8.69438C40.6598 8.27838 40.8558 7.96238 41.1438 7.74638C41.4398 7.52238 41.8678 7.41038 42.4278 7.41038C42.9318 7.41038 43.3198 7.49438 43.5918 7.66238C43.8718 7.82238 44.0638 8.06638 44.1678 8.39438C44.2718 8.71438 44.3238 9.11438 44.3238 9.59438V10.0024H43.1598V9.58238C43.1598 9.27838 43.1398 9.03838 43.0998 8.86238C43.0598 8.68638 42.9878 8.55838 42.8838 8.47838C42.7798 8.39838 42.6318 8.35838 42.4398 8.35838C42.2318 8.35838 42.0718 8.40638 41.9598 8.50238C41.8478 8.59838 41.7718 8.76238 41.7318 8.99438C41.6998 9.21838 41.6838 9.52638 41.6838 9.91838V12.1024C41.6838 12.6944 41.7398 13.0904 41.8518 13.2904C41.9638 13.4904 42.1638 13.5904 42.4518 13.5904C42.6678 13.5904 42.8238 13.5424 42.9198 13.4464C43.0238 13.3424 43.0878 13.1984 43.1118 13.0144C43.1438 12.8304 43.1598 12.6224 43.1598 12.3904V11.8264H44.3238V12.3064C44.3238 12.7704 44.2678 13.1704 44.1558 13.5064C44.0518 13.8424 43.8598 14.0984 43.5798 14.2744C43.3078 14.4504 42.9238 14.5384 42.4278 14.5384ZM45.5014 14.4424V4.72238H46.7854V8.22638C47.0174 8.00238 47.2774 7.81038 47.5654 7.65038C47.8534 7.49038 48.1734 7.41038 48.5254 7.41038C48.7974 7.41038 49.0054 7.48238 49.1494 7.62638C49.3014 7.77038 49.4054 7.95038 49.4614 8.16638C49.5254 8.38238 49.5574 8.60238 49.5574 8.82638V14.4424H48.2734V9.19838C48.2734 8.95038 48.2374 8.75838 48.1654 8.62238C48.0934 8.48638 47.9454 8.41838 47.7214 8.41838C47.5694 8.41838 47.4094 8.46238 47.2414 8.55038C47.0814 8.63838 46.9294 8.74638 46.7854 8.87438V14.4424H45.5014ZM50.8091 14.4424V7.50638H52.0931V8.19038C52.3251 7.97438 52.5811 7.79038 52.8611 7.63838C53.1411 7.48638 53.4491 7.41038 53.7851 7.41038C54.0651 7.41038 54.2771 7.48238 54.4211 7.62638C54.5731 7.77038 54.6771 7.95038 54.7331 8.16638C54.7971 8.38238 54.8291 8.60238 54.8291 8.82638V14.4424H53.5451V9.19838C53.5451 8.95038 53.5091 8.75838 53.4371 8.62238C53.3651 8.48638 53.2171 8.41838 52.9931 8.41838C52.8491 8.41838 52.6971 8.46238 52.5371 8.55038C52.3851 8.63038 52.2371 8.73038 52.0931 8.85038V14.4424H50.8091ZM57.9906 14.5384C57.4786 14.5384 57.0746 14.4344 56.7786 14.2264C56.4826 14.0184 56.2706 13.7224 56.1426 13.3384C56.0226 12.9544 55.9626 12.5024 55.9626 11.9824V9.96638C55.9626 9.44638 56.0226 8.99438 56.1426 8.61038C56.2706 8.22638 56.4826 7.93038 56.7786 7.72238C57.0746 7.51438 57.4786 7.41038 57.9906 7.41038C58.5026 7.41038 58.9026 7.51438 59.1906 7.72238C59.4866 7.93038 59.6946 8.22638 59.8146 8.61038C59.9426 8.99438 60.0066 9.44638 60.0066 9.96638V11.9824C60.0066 12.5024 59.9426 12.9544 59.8146 13.3384C59.6946 13.7224 59.4866 14.0184 59.1906 14.2264C58.9026 14.4344 58.5026 14.5384 57.9906 14.5384ZM57.9906 13.5904C58.2386 13.5904 58.4106 13.5184 58.5066 13.3744C58.6106 13.2304 58.6706 13.0424 58.6866 12.8104C58.7106 12.5704 58.7226 12.3224 58.7226 12.0664V9.89438C58.7226 9.63038 58.7106 9.38238 58.6866 9.15038C58.6706 8.91838 58.6106 8.73038 58.5066 8.58638C58.4106 8.43438 58.2386 8.35838 57.9906 8.35838C57.7426 8.35838 57.5666 8.43438 57.4626 8.58638C57.3586 8.73038 57.2946 8.91838 57.2706 9.15038C57.2546 9.38238 57.2466 9.63038 57.2466 9.89438V12.0664C57.2466 12.3224 57.2546 12.5704 57.2706 12.8104C57.2946 13.0424 57.3586 13.2304 57.4626 13.3744C57.5666 13.5184 57.7426 13.5904 57.9906 13.5904ZM61.3002 14.4424V4.72238H62.5842V14.4424H61.3002ZM65.8304 14.5384C65.3184 14.5384 64.9144 14.4344 64.6184 14.2264C64.3224 14.0184 64.1104 13.7224 63.9824 13.3384C63.8624 12.9544 63.8024 12.5024 63.8024 11.9824V9.96638C63.8024 9.44638 63.8624 8.99438 63.9824 8.61038C64.1104 8.22638 64.3224 7.93038 64.6184 7.72238C64.9144 7.51438 65.3184 7.41038 65.8304 7.41038C66.3424 7.41038 66.7424 7.51438 67.0304 7.72238C67.3264 7.93038 67.5344 8.22638 67.6544 8.61038C67.7824 8.99438 67.8464 9.44638 67.8464 9.96638V11.9824C67.8464 12.5024 67.7824 12.9544 67.6544 13.3384C67.5344 13.7224 67.3264 14.0184 67.0304 14.2264C66.7424 14.4344 66.3424 14.5384 65.8304 14.5384ZM65.8304 13.5904C66.0784 13.5904 66.2504 13.5184 66.3464 13.3744C66.4504 13.2304 66.5104 13.0424 66.5264 12.8104C66.5504 12.5704 66.5624 12.3224 66.5624 12.0664V9.89438C66.5624 9.63038 66.5504 9.38238 66.5264 9.15038C66.5104 8.91838 66.4504 8.73038 66.3464 8.58638C66.2504 8.43438 66.0784 8.35838 65.8304 8.35838C65.5824 8.35838 65.4064 8.43438 65.3024 8.58638C65.1984 8.73038 65.1344 8.91838 65.1104 9.15038C65.0944 9.38238 65.0864 9.63038 65.0864 9.89438V12.0664C65.0864 12.3224 65.0944 12.5704 65.1104 12.8104C65.1344 13.0424 65.1984 13.2304 65.3024 13.3744C65.4064 13.5184 65.5824 13.5904 65.8304 13.5904ZM70.8201 16.5904C70.4041 16.5904 70.0281 16.5464 69.6921 16.4584C69.3561 16.3704 69.0921 16.2304 68.9001 16.0384C68.7081 15.8464 68.6121 15.5944 68.6121 15.2824C68.6121 15.0584 68.6601 14.8624 68.7561 14.6944C68.8521 14.5264 68.9761 14.3824 69.1281 14.2624C69.2801 14.1344 69.4401 14.0304 69.6081 13.9504C69.3841 13.8864 69.2161 13.7864 69.1041 13.6504C68.9921 13.5064 68.9361 13.3584 68.9361 13.2064C68.9361 12.9504 69.0041 12.7304 69.1401 12.5464C69.2761 12.3624 69.4641 12.1624 69.7041 11.9464C69.4401 11.7464 69.2401 11.4904 69.1041 11.1784C68.9681 10.8664 68.9001 10.4344 68.9001 9.88238C68.9001 9.33838 68.9721 8.88638 69.1161 8.52638C69.2681 8.15838 69.4881 7.88238 69.7761 7.69838C70.0721 7.50638 70.4321 7.41038 70.8561 7.41038C71.2321 7.41038 71.5321 7.47438 71.7561 7.60238C71.9881 7.73038 72.1641 7.92238 72.2841 8.17838C72.3241 8.11438 72.4321 8.00638 72.6081 7.85438C72.7841 7.69438 72.9881 7.56238 73.2201 7.45838L73.4121 7.37438L73.7361 8.20238C73.6321 8.21838 73.4921 8.25838 73.3161 8.32238C73.1481 8.37838 72.9881 8.43838 72.8361 8.50238C72.6921 8.55838 72.6001 8.60638 72.5601 8.64638C72.6161 8.78238 72.6641 8.97838 72.7041 9.23438C72.7521 9.49038 72.7761 9.71838 72.7761 9.91838C72.7761 10.3904 72.7161 10.8064 72.5961 11.1664C72.4761 11.5264 72.2761 11.8104 71.9961 12.0184C71.7241 12.2184 71.3441 12.3184 70.8561 12.3184C70.7521 12.3184 70.6401 12.3104 70.5201 12.2944C70.4001 12.2784 70.2921 12.2584 70.1961 12.2344C70.1481 12.3064 70.0961 12.3904 70.0401 12.4864C69.9921 12.5824 69.9681 12.6744 69.9681 12.7624C69.9681 12.8504 70.0121 12.9224 70.1001 12.9784C70.1961 13.0264 70.3441 13.0584 70.5441 13.0744L71.6241 13.1704C72.1681 13.2184 72.5721 13.3824 72.8361 13.6624C73.1001 13.9424 73.2321 14.3424 73.2321 14.8624C73.2321 15.2384 73.1441 15.5544 72.9681 15.8104C72.7921 16.0744 72.5241 16.2704 72.1641 16.3984C71.8121 16.5264 71.3641 16.5904 70.8201 16.5904ZM70.9161 15.5824C71.3721 15.5824 71.7081 15.5264 71.9241 15.4144C72.1401 15.3104 72.2481 15.1384 72.2481 14.8984C72.2481 14.7544 72.2201 14.6344 72.1641 14.5384C72.1161 14.4424 72.0241 14.3664 71.8881 14.3104C71.7521 14.2544 71.5561 14.2144 71.3001 14.1904L70.2081 14.0944C70.1201 14.1824 70.0361 14.2704 69.9561 14.3584C69.8761 14.4464 69.8121 14.5384 69.7641 14.6344C69.7161 14.7384 69.6921 14.8464 69.6921 14.9584C69.6921 15.1664 69.7801 15.3224 69.9561 15.4264C70.1321 15.5304 70.4521 15.5824 70.9161 15.5824ZM70.8561 11.4184C71.0401 11.4184 71.1841 11.3864 71.2881 11.3224C71.4001 11.2504 71.4841 11.1504 71.5401 11.0224C71.5961 10.8864 71.6321 10.7224 71.6481 10.5304C71.6721 10.3384 71.6841 10.1224 71.6841 9.88238C71.6841 9.64238 71.6721 9.42638 71.6481 9.23438C71.6321 9.03438 71.5961 8.86638 71.5401 8.73038C71.4921 8.58638 71.4121 8.47838 71.3001 8.40638C71.1961 8.33438 71.0521 8.29838 70.8681 8.29838C70.6921 8.29838 70.5441 8.33438 70.4241 8.40638C70.3121 8.47838 70.2281 8.58238 70.1721 8.71838C70.1161 8.84638 70.0761 9.01038 70.0521 9.21038C70.0281 9.40238 70.0161 9.62638 70.0161 9.88238C70.0161 10.0984 70.0241 10.3024 70.0401 10.4944C70.0641 10.6784 70.1041 10.8384 70.1601 10.9744C70.2241 11.1104 70.3121 11.2184 70.4241 11.2984C70.5361 11.3784 70.6801 11.4184 70.8561 11.4184ZM74.3189 14.4424V7.50638H75.6029V14.4424H74.3189ZM74.3189 6.47438V5.13038H75.6029V6.47438H74.3189ZM78.8971 14.5384C78.3531 14.5384 77.9331 14.4344 77.6371 14.2264C77.3411 14.0104 77.1331 13.6984 77.0131 13.2904C76.9011 12.8744 76.8451 12.3664 76.8451 11.7664V10.1824C76.8451 9.56638 76.9051 9.05438 77.0251 8.64638C77.1451 8.23838 77.3531 7.93038 77.6491 7.72238C77.9531 7.51438 78.3691 7.41038 78.8971 7.41038C79.4811 7.41038 79.9091 7.53038 80.1811 7.77038C80.4611 8.01038 80.6451 8.35838 80.7331 8.81438C80.8211 9.26238 80.8651 9.80238 80.8651 10.4344V10.9984H78.1291V12.3904C78.1291 12.6704 78.1531 12.8984 78.2011 13.0744C78.2571 13.2504 78.3411 13.3824 78.4531 13.4704C78.5731 13.5504 78.7251 13.5904 78.9091 13.5904C79.1011 13.5904 79.2451 13.5464 79.3411 13.4584C79.4451 13.3624 79.5131 13.2304 79.5451 13.0624C79.5851 12.8864 79.6051 12.6824 79.6051 12.4504V12.0304H80.8531V12.2944C80.8531 12.9904 80.7051 13.5384 80.4091 13.9384C80.1131 14.3384 79.6091 14.5384 78.8971 14.5384ZM78.1291 10.3024H79.6051V9.67838C79.6051 9.39038 79.5891 9.15038 79.5571 8.95838C79.5251 8.75838 79.4571 8.61038 79.3531 8.51438C79.2571 8.41038 79.1011 8.35838 78.8851 8.35838C78.6771 8.35838 78.5171 8.40638 78.4051 8.50238C78.3011 8.59838 78.2291 8.76238 78.1891 8.99438C78.1491 9.21838 78.1291 9.53038 78.1291 9.93038V10.3024ZM83.6359 14.5384C83.0679 14.5384 82.6119 14.3624 82.2679 14.0104C81.9239 13.6504 81.7279 13.1784 81.6799 12.5944L82.7479 12.2704C82.8119 12.7104 82.9199 13.0424 83.0719 13.2664C83.2239 13.4824 83.4479 13.5904 83.7439 13.5904C83.9759 13.5904 84.1519 13.5264 84.2719 13.3984C84.3919 13.2624 84.4519 13.0824 84.4519 12.8584C84.4519 12.6584 84.4079 12.4784 84.3199 12.3184C84.2319 12.1584 84.0879 11.9944 83.8879 11.8264L82.6999 10.8064C82.4599 10.5984 82.2559 10.3664 82.0879 10.1104C81.9279 9.85438 81.8479 9.52238 81.8479 9.11438C81.8479 8.74638 81.9199 8.43838 82.0639 8.19038C82.2159 7.93438 82.4239 7.74238 82.6879 7.61438C82.9599 7.47838 83.2759 7.41038 83.6359 7.41038C84.1879 7.41038 84.6079 7.59038 84.8959 7.95038C85.1919 8.30238 85.3599 8.73038 85.3999 9.23438L84.5359 9.55838C84.5039 9.31838 84.4559 9.11038 84.3919 8.93438C84.3279 8.75038 84.2399 8.61038 84.1279 8.51438C84.0159 8.41038 83.8679 8.35838 83.6839 8.35838C83.4759 8.35838 83.3079 8.43038 83.1799 8.57438C83.0599 8.71038 82.9999 8.87438 82.9999 9.06638C82.9999 9.18638 83.0239 9.30638 83.0719 9.42638C83.1279 9.53838 83.2199 9.65038 83.3479 9.76238L84.5719 10.8904C84.7399 11.0424 84.8959 11.2064 85.0399 11.3824C85.1919 11.5584 85.3159 11.7584 85.4119 11.9824C85.5079 12.2064 85.5559 12.4664 85.5559 12.7624C85.5559 13.1544 85.4759 13.4824 85.3159 13.7464C85.1559 14.0104 84.9319 14.2104 84.6439 14.3464C84.3559 14.4744 84.0199 14.5384 83.6359 14.5384Z" fill="black"/>
<path d="M33.032 26.072C32.6587 26.072 32.3467 25.992 32.096 25.832C31.8507 25.672 31.664 25.4507 31.536 25.168C31.408 24.8853 31.3333 24.5573 31.312 24.184L32.112 23.968C32.128 24.1973 32.1627 24.4187 32.216 24.632C32.2747 24.8453 32.368 25.0213 32.496 25.16C32.624 25.2933 32.8027 25.36 33.032 25.36C33.2667 25.36 33.4427 25.296 33.56 25.168C33.6827 25.0347 33.744 24.8453 33.744 24.6C33.744 24.3067 33.6773 24.072 33.544 23.896C33.4107 23.7147 33.2427 23.5333 33.04 23.352L31.952 22.392C31.7387 22.2053 31.5813 22.0027 31.48 21.784C31.3787 21.56 31.328 21.2853 31.328 20.96C31.328 20.4853 31.464 20.1173 31.736 19.856C32.008 19.5947 32.3787 19.464 32.848 19.464C33.104 19.464 33.328 19.4987 33.52 19.568C33.7173 19.632 33.88 19.7333 34.008 19.872C34.1413 20.0107 34.2453 20.1867 34.32 20.4C34.4 20.608 34.4533 20.8533 34.48 21.136L33.712 21.344C33.696 21.1307 33.664 20.936 33.616 20.76C33.568 20.5787 33.4827 20.4347 33.36 20.328C33.2427 20.216 33.072 20.16 32.848 20.16C32.624 20.16 32.448 20.2213 32.32 20.344C32.1973 20.4613 32.136 20.6373 32.136 20.872C32.136 21.0693 32.168 21.232 32.232 21.36C32.3013 21.488 32.4107 21.6187 32.56 21.752L33.656 22.712C33.9013 22.9253 34.1173 23.1813 34.304 23.48C34.4907 23.7733 34.584 24.1227 34.584 24.528C34.584 24.848 34.5173 25.1253 34.384 25.36C34.2507 25.5893 34.0667 25.7653 33.832 25.888C33.6027 26.0107 33.336 26.072 33.032 26.072ZM35.2693 26V21.376H36.1253V26H35.2693ZM35.2693 20.688V19.792H36.1253V20.688H35.2693ZM38.6974 26.064C38.532 26.064 38.3827 26.024 38.2494 25.944C38.1214 25.8587 38.0094 25.7653 37.9134 25.664V26H37.0574V19.52H37.9134V21.744C38.0147 21.6267 38.1347 21.5253 38.2734 21.44C38.4174 21.3547 38.588 21.312 38.7854 21.312C39.0254 21.312 39.2147 21.376 39.3534 21.504C39.4974 21.6267 39.604 21.784 39.6734 21.976C39.7427 22.1627 39.788 22.3547 39.8094 22.552C39.8307 22.744 39.8414 22.9093 39.8414 23.048V24.168C39.8414 24.4933 39.8094 24.8027 39.7454 25.096C39.6814 25.384 39.5667 25.6187 39.4014 25.8C39.236 25.976 39.0014 26.064 38.6974 26.064ZM38.5214 25.392C38.6707 25.392 38.7774 25.3387 38.8414 25.232C38.9054 25.12 38.9454 24.9707 38.9614 24.784C38.9774 24.5973 38.9854 24.392 38.9854 24.168V23.048C38.9854 22.856 38.9747 22.68 38.9534 22.52C38.932 22.3547 38.8867 22.224 38.8174 22.128C38.748 22.032 38.6387 21.984 38.4894 21.984C38.3774 21.984 38.2707 22.008 38.1694 22.056C38.0734 22.104 37.988 22.1573 37.9134 22.216V25.184C37.988 25.2427 38.076 25.2933 38.1774 25.336C38.284 25.3733 38.3987 25.392 38.5214 25.392ZM41.8995 26.064C41.5368 26.064 41.2568 25.9947 41.0595 25.856C40.8622 25.712 40.7235 25.504 40.6435 25.232C40.5688 24.9547 40.5315 24.616 40.5315 24.216V23.16C40.5315 22.7493 40.5715 22.408 40.6515 22.136C40.7315 21.864 40.8702 21.6587 41.0675 21.52C41.2702 21.3813 41.5475 21.312 41.8995 21.312C42.2888 21.312 42.5742 21.392 42.7555 21.552C42.9422 21.712 43.0648 21.944 43.1235 22.248C43.1822 22.5467 43.2115 22.9067 43.2115 23.328V23.704H41.3875V24.632C41.3875 24.8187 41.4035 24.9707 41.4355 25.088C41.4728 25.2053 41.5288 25.2933 41.6035 25.352C41.6835 25.4053 41.7848 25.432 41.9075 25.432C42.0355 25.432 42.1315 25.4027 42.1955 25.344C42.2648 25.28 42.3102 25.192 42.3315 25.08C42.3582 24.9627 42.3715 24.8267 42.3715 24.672V24.392H43.2035V24.568C43.2035 25.032 43.1048 25.3973 42.9075 25.664C42.7102 25.9307 42.3742 26.064 41.8995 26.064ZM41.3875 23.24H42.3715V22.824C42.3715 22.632 42.3608 22.472 42.3395 22.344C42.3182 22.2107 42.2728 22.112 42.2035 22.048C42.1395 21.9787 42.0355 21.944 41.8915 21.944C41.7528 21.944 41.6462 21.976 41.5715 22.04C41.5022 22.104 41.4542 22.2133 41.4275 22.368C41.4008 22.5173 41.3875 22.7253 41.3875 22.992V23.24ZM44.0107 26V21.376H44.8667V22.032C45.0374 21.7493 45.208 21.56 45.3787 21.464C45.5494 21.368 45.72 21.32 45.8907 21.32C45.912 21.32 45.9307 21.32 45.9467 21.32C45.968 21.32 45.9947 21.3227 46.0267 21.328V22.272C45.9627 22.2453 45.888 22.224 45.8027 22.208C45.7227 22.1867 45.64 22.176 45.5547 22.176C45.4214 22.176 45.2987 22.208 45.1867 22.272C45.08 22.3307 44.9734 22.448 44.8667 22.624V26H44.0107ZM46.613 26V21.376H47.469V26H46.613ZM46.613 20.688V19.792H47.469V20.688H46.613ZM49.2171 26.064C49.0358 26.064 48.8758 26.0133 48.7371 25.912C48.5985 25.8053 48.4891 25.672 48.4091 25.512C48.3291 25.3467 48.2891 25.1733 48.2891 24.992C48.2891 24.704 48.3371 24.4613 48.4331 24.264C48.5291 24.0667 48.6598 23.9013 48.8251 23.768C48.9958 23.6293 49.1905 23.5093 49.4091 23.408C49.6331 23.3067 49.8678 23.208 50.1131 23.112V22.784C50.1131 22.5973 50.1025 22.4427 50.0811 22.32C50.0598 22.1973 50.0145 22.1067 49.9451 22.048C49.8811 21.984 49.7825 21.952 49.6491 21.952C49.5318 21.952 49.4358 21.9787 49.3611 22.032C49.2918 22.0853 49.2411 22.1627 49.2091 22.264C49.1771 22.36 49.1611 22.4747 49.1611 22.608V22.84L48.3131 22.808C48.3238 22.296 48.4411 21.92 48.6651 21.68C48.8891 21.4347 49.2358 21.312 49.7051 21.312C50.1638 21.312 50.4891 21.4373 50.6811 21.688C50.8731 21.9387 50.9691 22.3013 50.9691 22.776V24.888C50.9691 25.032 50.9718 25.1707 50.9771 25.304C50.9878 25.4373 50.9985 25.5627 51.0091 25.68C51.0251 25.792 51.0385 25.8987 51.0491 26H50.2651C50.2491 25.9147 50.2278 25.808 50.2011 25.68C50.1798 25.5467 50.1638 25.4267 50.1531 25.32C50.0998 25.5013 49.9958 25.672 49.8411 25.832C49.6918 25.9867 49.4838 26.064 49.2171 26.064ZM49.5531 25.328C49.6385 25.328 49.7185 25.304 49.7931 25.256C49.8678 25.208 49.9345 25.1547 49.9931 25.096C50.0518 25.032 50.0918 24.9813 50.1131 24.944V23.632C49.9798 23.7067 49.8545 23.7813 49.7371 23.856C49.6198 23.9307 49.5158 24.0107 49.4251 24.096C49.3398 24.176 49.2705 24.2693 49.2171 24.376C49.1691 24.4773 49.1451 24.5947 49.1451 24.728C49.1451 24.9147 49.1798 25.0613 49.2491 25.168C49.3185 25.2747 49.4198 25.328 49.5531 25.328Z" fill="black"/>
</svg>
